# xmcd
#
# Track frame offsets:
#	150
#	18244
#	42298
#	61136
#	84647
#	99892
#	130048
#	146711
#	163645
#	185373
#	212583
#	237207
#	253590
#	275884
#	296566
#	312054
#
# Disc length: 4445 seconds
#
# Revision: 20
# Processed by: cddbd v1.5.2PL0 Copyright (c) Steve Scherf et al.
# Submitted via: Jack! The Knife 20 Magnifico
#
DISCID=dc115b10
DTITLE=Bryan Adams - Greatest Hits
DYEAR=1999
DGENRE=Rock
TTITLE0=Run To You
TTITLE1=Cuts Like A Knife
TTITLE2=Heaven
TTITLE3=Heat Of The Night
TTITLE4=It's Only Love (With Tina Turner)
TTITLE5=(Everything I Do) I Do It For You
TTITLE6=Summer Of '69
TTITLE7=The Only Thing That Looks Good On Me Is You
TTITLE8=Somebody
TTITLE9=Please Forgive Me
TTITLE10=All I Want Is You
TTITLE11=Straight From The Heart
TTITLE12=Have You Ever Really Loved A Woman? (With Paco De Lucia)
TTITLE13=Can't Stop This Thing We Started
TTITLE14=This Time
TTITLE15=All For Love (With Rod Stewart and Sting)
EXTD=Bryan Adams
EXTT0=Adams, Vallance
EXTT1=Adams, Vallance
EXTT2=Adams, Vallance
EXTT3=Adams, Vallance
EXTT4=Adams, Vallance
EXTT5=Adams, Lange, Kamen
EXTT6=Adams, Vallance
EXTT7=Adams, Lange
EXTT8=Adams, Vallance
EXTT9=Adams, Lange
EXTT10=Bryan Adams
EXTT11=Adams, Kagna
EXTT12=Adams, Kamen, Lange
EXTT13=Adams, Lange
EXTT14=Adams, Vallance
EXTT15=Adams, Lange, Kamen
PLAYORDER=
